<?xml version="1.0" encoding="UTF-8"?>
<svg id="Layer_1" data-name="Layer 1" xmlns="http://www.w3.org/2000/svg" xmlns:xlink="http://www.w3.org/1999/xlink" viewBox="0 0 64 64">
  <defs>
    <style>
      .cls-1, .cls-2, .cls-3, .cls-4, .cls-5 {
        stroke-width: 0px;
      }

      .cls-1, .cls-6, .cls-7 {
        fill: none;
      }

      .cls-2 {
        fill: url(#radial-gradient);
      }

      .cls-6, .cls-7 {
        stroke: #fff;
        stroke-width: 2px;
      }

      .cls-7 {
        stroke-linecap: round;
        stroke-linejoin: round;
      }

      .cls-8 {
        opacity: .2;
      }

      .cls-3 {
        fill: #009ca2;
      }

      .cls-4 {
        fill: #fff;
      }

      .cls-5 {
        fill: #00b8c4;
      }
    </style>
    <radialGradient id="radial-gradient" cx="32" cy="32" fx="32" fy="32" r="22" gradientUnits="userSpaceOnUse">
      <stop offset="0" stop-color="#00b8c4"/>
      <stop offset="1" stop-color="#1383c6"/>
    </radialGradient>
  </defs>
  <rect class="cls-1" width="64" height="64"/>
  <g>
    <circle class="cls-2" cx="32" cy="32" r="22"/>
    <g>
      <g>
        <g>
          <g>
            <line class="cls-6" x1="44.16072" y1="32.10799" x2="54" y2="32.10799"/>
            <polyline class="cls-6" points="50.56691 28.6749 54 32.10799 50.56691 35.54109"/>
          </g>
          <line class="cls-6" x1="10" y1="32.10799" x2="19.83928" y2="32.10799"/>
        </g>
        <g>
          <rect class="cls-5" x="18.8391" y="17.88187" width="26.32178" height="28.23633" rx="3" ry="3"/>
          <path class="cls-4" d="m42.16076,18.88194c1.09998,0,2,.89999,2,2v22.23611c0,1.10001-.90002,2-2,2h-20.32153c-1.09998,0-2-.89999-2-2v-22.23611c0-1.10001.90002-2,2-2h20.32153m0-2h-20.32153c-2.20557,0-4,1.79439-4,4v22.23611c0,2.20561,1.79443,4,4,4h20.32153c2.20557,0,4-1.79439,4-4v-22.23611c0-2.20561-1.79443-4-4-4h0Z"/>
        </g>
        <g class="cls-8">
          <polygon class="cls-4" points="19.83928 45.11806 19.83928 18.88194 44.16072 18.88194 19.83928 45.11806"/>
        </g>
      </g>
      <g>
        <path class="cls-3" d="m39.35343,41.45723c.26953-.1958.4126-.50147.41211-.81104,0-.20361-.0625-.40869-.19092-.58594l-4.542-6.25148,7.34914-2.38819c.42285-.1377.69141-.52979.69141-.95117-.00049-.10254-.01611-.20654-.04932-.30908-.05036-.15498-.1351-.28932-.24307-.39729l-1.41423-1.41421c-.25736-.25736-.64673-.36485-1.01719-.2448l-5.93491,1.92862v-5.85378c0-.27613-.11194-.52613-.29291-.7071l-1.40883-1.40881-.00539-.00539c-.18097-.18097-.43097-.2929-.70709-.2929-.23996,0-.46018.08453-.63252.22545-.22429.18339-.36748.46226-.36748.77455v7.72754s-7.34961-2.38818-7.34961-2.38818c-.33671-.10901-.6886-.0304-.94308.17767-.14334.1172-.25577.27547-.31717.46442-.0332.10254-.04883.20654-.04932.30908,0,.26669.10757.52185.29375.70803l1.41419,1.41421c.10799.10799.24243.19278.39766.24315l5.37422,1.7463-3.98129,5.47914c-.12842.17725-.19092.38232-.19092.58594-.00041.25977.10026.51679.29193.70846l1.4142,1.41423c.03674.03674.07682.07108.12018.10257.44873.32568,1.07276.22461,1.39698-.22119l4.34908-5.98577,3.32119,4.57154c.03147.04324.06574.08322.1024.11988l1.41422,1.41423c.19145.19146.44784.29223.70766.29223.20361,0,.40918-.06201.58692-.19092Z"/>
        <polygon class="cls-7" points="32 22.76463 32 31.86855 40.65834 29.05528 32 31.86855 37.35115 39.23377 32 31.86855 26.64885 39.23377 32 31.86855 23.34166 29.05528 32 31.86855 32 22.76463"/>
      </g>
    </g>
  </g>
</svg>